<?xml version="1.0" encoding="UTF-8"?>
<svg id="Layer_2" data-name="Layer 2" xmlns="http://www.w3.org/2000/svg" viewBox="0 0 5449.4 3353.02">
  <g id="Calque_1" data-name="Calque 1">
    <g>
      <rect x="636.37" y="1438.57" width="160.41" height="1063.45"/>
      <polygon points="1396.82 1598.98 1396.82 1437.72 940.21 1437.72 940.21 2502.02 1396.82 2502.02 1396.82 2340.76 1100.62 2340.76 1100.62 2050.5 1317.04 2050.5 1317.04 1889.24 1100.62 1889.24 1100.62 1598.98 1396.82 1598.98"/>
      <path d="M2505.22,2502.87c47.53-14.71,84.3-39.89,110.33-75.54,39.6-52.62,58.84-115.98,57.71-190.11-.57-29.98-8.49-63.93-23.77-101.85-6.23-15.28-14.43-31.96-24.61-50.07-21.51-38.47-52.06-77.51-91.66-117.12-11.88-12.44-36.5-34.23-73.84-65.35-31.69-26.02-55.46-48.66-71.29-67.9-41.88-50.35-62.8-99.86-62.8-148.53,0-31.11,6.22-57.14,18.67-78.08,15.28-26.02,37.62-39.04,67.05-39.04,27.72,0,48.93,8.78,63.65,26.31,20.37,24.33,32.81,58.28,37.34,101.85l153.62-28.01c-3.96-46.39-15.7-87.42-35.22-123.06-19.52-35.65-45.13-63.36-76.81-83.17-40.74-25.46-89.69-38.19-146.83-38.19s-109.21,15.01-149.38,45.02c-65.07,49.84-97.6,123.18-97.6,220.02,0,53.8,11.88,103.64,35.65,149.51,22.07,40.78,59.69,86.94,112.88,138.47,63.36,60.03,110.89,105.06,142.58,135.07,40.17,43.6,60.26,87.5,60.26,131.67,0,30.58-5.39,54.08-16.13,70.5-20.94,33.42-48.95,50.7-84.02,51.83-24.9,1.14-46.97-8.82-66.2-29.86-26.03-27.86-42.44-72.79-49.23-134.79l-152.77,11.03c3.39,56.59,15.13,106.81,35.22,150.65,20.08,43.85,47.38,78.51,81.9,103.97,41.3,31.12,93.36,46.68,156.17,46.68,33.95,0,63.65-3.96,89.12-11.88Z"/>
      <path d="M3366.64,2427.33c39.6-52.62,58.84-115.98,57.71-190.11-.57-29.98-8.49-63.93-23.77-101.85-6.23-15.28-14.43-31.96-24.61-50.07-21.51-38.47-52.06-77.51-91.66-117.12-11.88-12.44-36.5-34.23-73.84-65.35-31.69-26.02-55.46-48.66-71.29-67.9-41.88-50.35-62.8-99.86-62.8-148.53,0-31.11,6.22-57.14,18.67-78.08,15.28-26.02,37.62-39.04,67.05-39.04,27.72,0,48.93,8.78,63.65,26.31,20.37,24.33,32.81,58.28,37.34,101.85l153.62-28.01c-3.96-46.39-15.7-87.42-35.22-123.06-19.52-35.65-45.13-63.36-76.81-83.17-40.74-25.46-89.69-38.19-146.83-38.19s-109.21,15.01-149.38,45.02c-65.07,49.84-97.6,123.18-97.6,220.02,0,53.8,11.88,103.64,35.65,149.51,22.07,40.78,59.69,86.94,112.88,138.47,63.36,60.03,110.89,105.06,142.58,135.07,40.17,43.6,60.26,87.5,60.26,131.67,0,30.58-5.39,54.08-16.13,70.5-20.94,33.42-48.95,50.7-84.02,51.83-24.9,1.14-46.97-8.82-66.2-29.86-26.03-27.86-42.44-72.79-49.23-134.79l-152.77,11.03c3.39,56.59,15.13,106.81,35.22,150.65,20.08,43.85,47.38,78.51,81.9,103.97,41.3,31.12,93.36,46.68,156.17,46.68,33.95,0,63.65-3.96,89.12-11.88,47.53-14.71,84.3-39.89,110.33-75.54Z"/>
      <polygon points="4784.82 2502.02 4784.82 1437.72 4624.41 1437.72 4624.41 2152.99 4411.54 1437.72 4231.45 1437.72 4231.45 2502.02 4391.86 2502.02 4391.86 1820.49 4612.53 2502.02 4784.82 2502.02"/>
      <path d="M5036.03,2468.07c41.3,31.12,93.36,46.68,156.17,46.68,33.95,0,63.65-3.96,89.12-11.88,47.53-14.71,84.3-39.89,110.33-75.54,39.6-52.62,58.84-115.98,57.71-190.11-.57-29.98-8.49-63.93-23.76-101.85-6.23-15.28-14.43-31.96-24.61-50.07-21.51-38.47-52.06-77.51-91.66-117.12-11.88-12.44-36.5-34.23-73.84-65.35-31.69-26.02-55.46-48.66-71.29-67.9-41.88-50.35-62.8-99.86-62.8-148.53,0-31.11,6.22-57.14,18.67-78.08,15.28-26.02,37.62-39.04,67.05-39.04,27.72,0,48.93,8.78,63.65,26.31,20.37,24.33,32.81,58.28,37.34,101.85l153.62-28.01c-3.96-46.39-15.7-87.42-35.22-123.06-10.81-19.74-23.49-37.04-38.04-51.92-68.44-119.14-174.83-323.48-200.49-349.36-34.25-34.56-128.65-139.22-176.08-207.84-72.89-105.42-57.07-72.91-72.98-89.49-20.28-21.12-19.7-37.96-27.3-63.38-10.76-35.96-3.59-47.7-25.7-78.05-2.45-3.36-4.78-7.27-8.13-9.44-49.84-32.28-55.68-51.78-109.04-76.54-51.25-23.79-101.84-48.97-153.21-72.48-69.91-32-136.39-71.2-196.91-118.62-92.31-72.31-188.85-137.76-297.18-184.17-44.13-18.91-77.74-49.11-102.52-90.09-7.65-12.65-16.56-25.56-27.8-34.82-46.7-38.48-94.79-75.26-141.68-113.51-9.86-8.04-17.95-8.06-28.81-3.94-31.9,12.12-63.31,27.77-96.41,33.81-33.48,6.11-54.24,24.22-69.44,50.7-14.21,24.77-33.11,35.02-61.47,41.66-71.11,16.64-141.01,38.82-210.73,60.87-20.49,6.48-41.13,17.13-57.63,30.78-55.14,45.59-118.01,74.1-187.14,88.72-69.56,14.72-139.38,28.72-209.6,39.69-97.19,15.18-182.32,62.06-264.45,96.52-8.93,13.29-13.14,23.12-20.33,29.66-42.66,38.85-86.64,76.29-128.72,115.74-10.93,10.25-18.63,11.14-31.1,5.27-85.88-40.43-169.45-85.27-244.18-143.94-35.34-27.75-73.24-44.86-116.22-54.25-12.79-2.8-24.64-9.93-36.94-15.02-11.27-4.66-22.35-12.45-33.9-13.27-31.85-2.26-64.06.55-90.75-23.26-6.14-5.48-17.31-5.6-26.3-7.56-12.87-2.8-22.32-7.69-29.22-20.97-12.77-24.55-25.07-26.05-48.44-11.93-8.93,5.4-19.01,9.08-28.88,12.69-32.68,11.98-66.58,21.22-98.03,35.79-70.33,32.57-139.4,67.86-209.19,101.62-7.38,3.57-16.2,6.4-24.21,6.07-30.6-1.27-61.12-4.47-91.71-5.99-32.4-1.61-65.38-8.16-96.38,7.87-44.8,23.17-91.3,43.6-134.03,70.12-208.11,129.18-414.92,260.48-622.75,390.11-186.29,116.19-263.29,220.66-470.26,296.11-19.81,7.22-60.94,16.11-56.93,35.54,5.91,28.6,8.4,10.08,22.12,10.71,4.26.2,115.17-38.39,227.56-68.41,76.05-20.31,149.39-55.53,219.44-92.58,161.02-85.18,289.71-222.69,449.87-309.53,89.34-48.44,209.86-46.82,300.61-92.62,5.43-2.74,17.32-3.78,18.68-1.36,3.76,6.66,7.31,17.86,4.12,23.15-7.82,12.97-17.4,27.05-29.93,34.66-103.38,62.75-207.12,124.95-311.83,185.46-34.31,19.83-70.67,37.49-108.12,50.1-35.59,11.99-59.73,35.61-88.1,63.37,94.66-3.42,184.73-.65,270.97-36.71,61.29-25.63,125.32-44.72,191.09-67.76-7.68,34.48-14.69,65.95-22.65,101.66,12.7-7,21.65-12.19,30.84-16.94,20.85-10.77,40.94-23.91,62.95-31.29,25.93-8.7,44.24-24.57,59.75-45.72,21.5-29.34,39.86-59.46,72.28-81.6,31.34-21.4,56.53-54.34,78.7-86.2,78.38-112.64,181.49-183.35,318.68-205.49,111.75-18.03,218.2-9.52,319.52,43.72,64.02,33.64,128.42,66.56,193.66,100.32-15.43,27.56-40.79,45.01-66.82,60.62-93.93,56.33-188.22,112.08-282.92,167.13-28.32,16.46-57.44,31.6-87.58,44.42-154.99,65.91-320.41,87.83-484.9,112.57-97.1,14.6-194.85,24.88-292.2,37.86-84.62,11.28-602.71,214.34-687.19,226.67-46.81,6.83-87.34,26.75-125.11,56.49-.58,0-1.16-.02-1.74-.02H4.1v1063.45h160.41v-400.6h92.51c69.6,0,128.86-24.89,177.81-74.69,48.93-49.78,73.41-109.76,73.41-179.93v-154.47c0-72.99-21.51-132.96-64.5-179.93-34.96-37.09-78.92-60.2-131.87-69.35,171.42-42.35,599.33-197.86,690.71-204.75,134.97-10.18,270.09-18.66,404.93-30.4,205.45-17.88,404.14-66.06,594.86-144.24,510.78-209.36-3.25,238.43,725.54-453.85,47.25-44.88,100.12-84.74,154.24-121.22,53.76-36.23,115.77-41.52,181.1-28.47-14.03,24.33-27.49,46.1-39.4,68.68-27.45,52.02-68.42,87.43-123.22,109.4-63.34,25.39-125.08,54.74-188.07,81.03-79.48,33.17-141.8,86.1-188.45,158.13-18.69,28.85-491.08,524.94-587.51,633.77-48.71-48.93-107.83-73.42-177.38-73.42h-252.07v1064.3h252.07c69.59,0,129.01-24.89,178.23-74.69,49.23-49.78,73.84-109.76,73.84-179.93v-555.91c0-44.7-10.12-85.31-30.31-121.84,33.5-30.11,88.18-92.83,106.79-116.09,31.95-39.93,583.06-595.51,630.22-614.76,79.63-32.5,158.01-68.57,239.07-96.98,140.25-49.15,261-125.34,359.32-237.32,31-35.31,64.61-68.51,98.89-100.69,14.57-13.67,33.36-23.35,51.36-32.67,11.21-5.8,20.43-1.15,27.64,11.17,22.29,38.07,45.4,75.72,69.84,112.44,5.95,8.95,17.29,16.54,27.71,19.92,56.94,18.45,114.37,35.38,168.66,51.93-26.37,20.13-52.76,40.27-79.16,60.41.98,4.45,1.1,5.02,2.08,9.47,39.89,9.35,79.32,23.37,119.74,27.28,152.41,14.75,305.12,26.32,457.74,38.84,26.65,2.19,53.4,3.21,80.42,4.79-.19-22.4-12.21-32.9-29.48-39.37-49.23-18.47-98.45-36.96-147.63-55.56-9.91-3.75-21.55-5.79-29.11-12.38-30.57-26.66-62.74-47.65-101.72-62.92-44.15-17.29-86.73-38.21-133.06-50.35-32.95-8.63-65.11-20.34-97.39-31.39-5.13-1.76-12.46-6.93-12.87-11.11-3.16-32.1-4.87-64.33-7.35-101.41,23.36,9.38,42.69,16.13,61.15,24.73,58.32,27.19,104.31,71.38,153.32,111.54,11.49,9.42,24.89,16.31,39.32,19.85,30.06,7.37,60.94,11.64,91.68,15.78,52.41,7.06,101.71,21.42,150.16,44.33,145.98,69.03,294.27,133.45,452.26,170.27,77.03,17.95,85.2,17.68,90.55,92.58,2.17,30.36-54.33,106.7-93.26,123-84.67,35.44-519.64,320.42-834.22,336.73-112.53,5.83-162.37,78.82-184.75,91.04-5.34,2.91-13.26,62.42-11.27,65.82l-180.79,1063.45h167.02l38.98-244.43h167.48l37.53,244.43h168.66l-178.22-1063.45c13.63-2.31,154.4-73.6,267.78-101.06,55.27-13.38,51.11-37.82,140.19-57.96,48.88-11.06,92.18-62.65,110.34-68.43,99.27-31.58,79.28-13.22,154.54-67.34,112.36-80.8,262.91-47.59,285.46-31.35,2.36,1.7,18.67,11.25,41.44,23.07,4.55,2.36,9.71,4.78,14.79,5.22,38.13,3.28,122.46-5.96,149.6,21.01,28.18,28,106.78,172.14,185.19,274.23-25.9-7.31-54.16-10.96-84.77-10.96-59.41,0-109.21,15.01-149.38,45.02-65.07,49.84-97.6,123.18-97.6,220.02,0,53.8,11.88,103.64,35.65,149.51,22.07,40.78,59.69,86.94,112.88,138.47,63.36,60.03,110.89,105.06,142.58,135.07,40.17,43.6,60.26,87.5,60.26,131.67,0,30.58-5.38,54.08-16.13,70.5-20.94,33.42-48.95,50.7-84.02,51.83-24.9,1.14-46.97-8.82-66.2-29.86-26.03-27.86-42.44-72.79-49.23-134.79l-152.77,11.03c3.39,56.59,15.13,106.81,35.22,150.65,20.08,43.85,47.38,78.51,81.9,103.97ZM352.93,1694.88v155.32c0,25.46-8.91,47.25-26.74,65.35-17.82,18.12-39.47,27.16-64.93,27.16h-96.75v-340.34h96.75c27.72,0,49.93,8.49,66.62,25.46,16.68,16.97,25.04,39.33,25.04,67.05ZM1855.13,2250.8c0,24.9-8.78,46.55-26.31,64.93-17.54,18.39-39.04,27.58-64.5,27.58h-96.75v-741.78h96.75c24.89,0,46.26,9.06,64.08,27.16,17.82,18.11,26.74,39.89,26.74,65.35v556.76ZM3747.71,2101.42l59.41-419.27,59.41,419.27h-118.82Z"/>
      <polygon points="0 3343.49 120.12 3343.49 120.12 3005.36 282.2 3005.36 282.2 2884.6 120.12 2884.6 120.12 2667.23 341.94 2667.23 346.23 2546.47 4.28 2546.47 0 3343.49"/>
      <path d="M918.18,2852.82v-115.68c0-57.62-13.77-102.54-41.31-134.74-31.36-36.86-76.23-55.3-143.17-55.3h-189.4l-4.28,796.39h120.12v-300h80.08l72.83,300h129.91l-88.97-347.66c42.79-38.98,64.19-86.65,64.19-143.01ZM801.23,2855.36c0,19.07-6.67,35.39-20.02,48.94-13.35,13.56-29.55,20.34-48.62,20.34h-72.46v-254.87h72.46c45.76,0,68.64,23.1,68.64,69.28v116.31Z"/>
      <path d="M1335.35,2536.93c-52.12,0-101.11,18.54-138.39,55.61-37.29,37.08-55.93,82.1-55.93,135.06v434.74c0,52.54,18.43,97.46,55.3,134.74,36.86,37.29,81.77,55.93,134.74,55.93s97.45-18.53,134.74-55.61c37.28-37.07,55.93-82.09,55.93-135.06v-434.74c0-52.54-18.54-97.45-55.61-134.74-37.08-37.28-77.82-55.93-130.78-55.93ZM1396.53,3161.07c0,19.07-6.67,35.27-20.02,48.62-13.35,13.35-29.55,20.02-48.62,20.02s-35.38-6.67-48.94-20.02c-13.57-13.35-20.34-29.55-20.34-48.62v-436.01c0-19.07,6.77-35.27,20.34-48.62,13.56-13.35,29.87-20.02,48.94-20.02s35.27,6.67,48.62,20.02c13.35,13.35,20.02,29.55,20.02,48.62v436.01Z"/>
      <polygon points="2036.95 3082.11 1881.82 2546.47 1746.96 2546.47 1742.67 3343.49 1862.8 3343.49 1862.8 2833.11 2028.05 3343.49 2157.07 3343.49 2161.36 2546.47 2041.23 2546.47 2036.95 3082.11"/>
      <polygon points="2369.12 2667.86 2496.87 2667.86 2496.87 3343.49 2616.99 3343.49 2616.99 2667.86 2744.11 2667.86 2748.39 2547.1 2373.4 2547.1 2369.12 2667.86"/>
      <polygon points="2956.15 3343.49 3076.28 3343.49 3080.56 2547.1 2960.43 2547.1 2956.15 3343.49"/>
      <polygon points="3299.13 3343.49 3641.07 3343.49 3641.07 3222.73 3419.26 3222.73 3419.26 3005.36 3581.33 3005.36 3581.33 2884.6 3419.26 2884.6 3419.26 2667.23 3641.07 2667.23 3645.36 2546.47 3303.41 2546.47 3299.13 3343.49"/>
      <path d="M4217.31,2852.82v-115.68c0-57.62-13.77-102.54-41.31-134.74-31.36-36.86-76.23-55.3-143.17-55.3h-189.4l-4.28,796.39h120.13v-300h80.08l72.83,300h129.91l-88.97-347.66c42.79-38.98,64.19-86.65,64.19-143.01ZM4100.36,2855.36c0,19.07-6.67,35.39-20.02,48.94-13.35,13.56-29.55,20.34-48.62,20.34h-72.46v-254.87h72.46c45.76,0,68.64,23.1,68.64,69.28v116.31Z"/>
      <polygon points="4460.49 3343.49 4802.43 3343.49 4802.43 3222.73 4580.62 3222.73 4580.62 3005.36 4742.69 3005.36 4742.69 2884.6 4580.62 2884.6 4580.62 2667.23 4802.43 2667.23 4806.72 2546.47 4464.77 2546.47 4460.49 3343.49"/>
      <path d="M5379.94,3068.92c-4.67-11.44-10.8-23.93-18.43-37.5-16.11-28.81-38.99-58.05-68.64-87.71-8.9-9.32-27.33-25.63-55.3-48.94-23.74-19.49-41.53-36.44-53.39-50.85-31.36-37.71-47.03-74.78-47.03-111.23,0-23.3,4.66-42.79,13.98-58.47,11.44-19.48,28.17-29.24,50.21-29.24,20.76,0,36.65,6.57,47.67,19.7,15.25,18.22,24.57,43.65,27.97,76.27l115.04-20.97c-2.97-34.74-11.76-65.47-26.38-92.16-14.62-26.7-33.8-47.45-57.52-62.29-30.51-19.07-62.88-28.6-105.67-28.6s-86.06,11.24-116.15,33.72c-48.73,37.32-73.09,92.25-73.09,164.76,0,40.29,8.9,77.61,26.69,111.96,16.53,30.54,44.7,65.11,84.53,103.7,47.45,44.96,83.04,78.67,106.78,101.15,30.08,32.65,45.13,65.53,45.13,98.61,0,22.9-4.03,40.5-12.08,52.79-15.68,25.03-36.65,37.97-62.92,38.81-18.65.85-35.18-6.6-49.58-22.36-19.49-20.87-31.78-54.51-36.86-100.94l-114.41,8.26c2.54,42.38,11.33,79.98,26.38,112.82,15.04,32.84,35.48,58.79,61.33,77.86,30.93,23.31,69.92,34.96,116.95,34.96,25.42,0,47.67-2.97,66.74-8.9,35.59-11.01,63.13-29.87,82.63-56.57,29.65-39.41,44.06-86.86,43.22-142.37-.43-22.45-6.36-47.88-17.8-76.27Z"/>
    </g>
  </g>
</svg>